<svg id="visual" viewBox="0 0 960 200" width="960" height="200" xmlns="http://www.w3.org/2000/svg" xmlns:xlink="http://www.w3.org/1999/xlink" version="1.1"><rect x="0" y="0" width="960" height="200" fill="#F5F4E9"></rect><path d="M0 131L40 135.8C80 140.7 160 150.3 240 144.8C320 139.3 400 118.7 480 111C560 103.3 640 108.7 720 118.5C800 128.3 880 142.7 920 149.8L960 157L960 201L920 201C880 201 800 201 720 201C640 201 560 201 480 201C400 201 320 201 240 201C160 201 80 201 40 201L0 201Z" fill="#002051" stroke-linecap="round" stroke-linejoin="miter"></path></svg>